<?xml version="1.0" standalone="no"?>
<!DOCTYPE svg PUBLIC "-//W3C//DTD SVG 20010904//EN"
 "http://www.w3.org/TR/2001/REC-SVG-20010904/DTD/svg10.dtd">
<svg version="1.0" xmlns="http://www.w3.org/2000/svg"
 width="904.000000pt" height="904.000000pt" viewBox="0 0 904.000000 904.000000"
 preserveAspectRatio="xMidYMid meet">
<metadata>
Created by potrace 1.14, written by Peter Selinger 2001-2017
</metadata>
<g transform="translate(0.000000,904.000000) scale(0.100000,-0.100000)"
fill="#000000" stroke="none">
<path d="M7058 9035 c-2 -2 -26 -6 -53 -9 -28 -3 -50 -5 -50 -6 0 -1 -16 -4
-35 -6 -28 -4 -73 -15 -120 -29 -3 -1 -18 -5 -35 -9 -153 -40 -343 -133 -498
-244 -116 -83 -321 -290 -351 -353 -5 -10 -13 -19 -18 -19 -4 0 -8 -6 -8 -14
0 -8 -7 -16 -15 -20 -8 -3 -15 -12 -15 -20 0 -8 -6 -21 -12 -28 -35 -38 -119
-212 -156 -323 -39 -116 -66 -234 -78 -347 -11 -93 -6 -393 6 -393 1 0 3 -13
5 -30 9 -87 48 -229 92 -340 103 -262 265 -483 478 -654 39 -31 72 -58 75 -61
33 -36 336 -197 358 -190 1 0 15 -6 32 -15 55 -28 243 -73 380 -91 56 -7 290
-7 345 0 100 14 110 15 135 21 14 3 38 8 54 11 16 2 33 7 38 10 5 3 20 7 34
10 28 5 108 30 139 44 262 114 401 205 570 375 88 88 187 214 229 292 12 21
24 40 27 43 6 5 83 161 84 170 0 3 3 10 6 15 7 10 42 112 45 130 1 6 9 36 18
67 10 31 19 69 22 83 2 14 7 37 10 53 13 60 16 104 19 252 3 157 -10 283 -41
400 -8 30 -17 65 -20 78 -6 31 -42 126 -70 190 -13 29 -24 54 -24 57 0 2 -22
42 -50 90 -57 99 -125 197 -169 243 -17 17 -31 34 -31 36 0 3 -32 35 -71 73
-88 84 -84 81 -139 123 -25 19 -47 37 -50 40 -3 3 -17 11 -32 19 -16 8 -28 18
-28 23 0 4 -6 8 -14 8 -8 0 -16 3 -18 8 -1 4 -19 15 -38 25 -19 10 -60 31 -90
46 -47 25 -89 43 -215 91 -44 17 -117 36 -170 44 -32 5 -67 12 -112 22 -31 6
-369 14 -375 9z"/>
<path d="M1569 8816 c-2 -2 -33 -7 -68 -10 -36 -4 -67 -9 -70 -10 -3 -2 -24
-7 -46 -11 -44 -7 -53 -9 -75 -17 -8 -3 -44 -16 -80 -28 -84 -28 -203 -81
-212 -95 -4 -5 -8 -6 -8 -2 0 5 -13 -1 -29 -12 -16 -12 -34 -21 -39 -21 -6 0
-12 -3 -14 -7 -2 -5 -28 -24 -58 -44 -115 -75 -258 -215 -348 -339 -34 -47
-66 -89 -70 -95 -6 -8 -29 -51 -73 -135 -27 -51 -73 -175 -94 -255 -1 -5 -3
-13 -4 -17 -1 -4 -7 -22 -12 -40 -6 -18 -12 -53 -15 -78 -3 -25 -9 -62 -13
-82 -9 -37 -7 -317 2 -373 2 -16 8 -49 11 -72 4 -24 8 -46 8 -50 1 -5 9 -33
20 -63 10 -30 19 -57 18 -60 -1 -18 40 -121 71 -181 10 -20 16 -38 14 -41 -3
-3 1 -11 10 -18 8 -7 15 -16 15 -21 0 -15 64 -114 126 -194 58 -76 161 -186
215 -230 71 -58 205 -170 209 -175 3 -3 46 -39 95 -80 50 -41 95 -79 101 -85
7 -5 31 -26 54 -44 23 -19 48 -40 54 -46 6 -5 79 -66 161 -135 83 -68 152
-127 155 -130 3 -3 46 -39 95 -80 50 -41 95 -79 101 -85 6 -5 30 -26 54 -45
24 -19 58 -47 74 -62 17 -15 65 -55 106 -89 83 -68 159 -132 198 -167 14 -12
39 -33 55 -45 16 -12 36 -29 45 -37 15 -14 154 -130 221 -185 13 -11 32 -27
40 -35 9 -8 41 -35 71 -60 30 -25 57 -47 60 -50 3 -3 26 -22 51 -42 l45 -37
-1 -1543 c0 -849 1 -1547 3 -1552 3 -4 6 -33 7 -65 3 -63 21 -170 36 -218 6
-17 12 -43 15 -58 10 -57 103 -272 144 -335 9 -14 30 -45 46 -70 16 -25 32
-46 37 -48 4 -2 7 -7 7 -12 0 -22 181 -212 260 -273 30 -23 57 -45 58 -49 2
-5 7 -8 12 -8 4 0 34 -18 66 -39 123 -81 351 -177 468 -195 21 -4 41 -8 45
-10 29 -18 388 -27 481 -12 62 10 91 15 118 20 42 9 191 56 237 76 25 11 48
19 50 19 18 0 257 144 291 176 7 5 29 24 50 42 60 48 124 112 179 178 28 33
52 62 55 65 3 3 10 12 15 21 6 9 23 36 39 60 34 51 120 209 122 225 1 6 9 27
17 45 15 34 26 65 28 84 0 6 5 17 10 26 4 9 10 27 12 40 3 13 10 42 15 64 16
57 21 90 29 170 8 84 7 3484 -1 3735 -6 167 -14 345 -16 345 -1 0 -3 16 -5 35
-3 44 -13 117 -20 150 -10 49 -15 70 -20 88 -2 9 -9 37 -15 62 -11 44 -15 55
-61 160 -62 140 -194 298 -320 382 -54 36 -101 72 -184 142 -99 83 -143 120
-178 149 -21 18 -49 42 -62 55 -13 12 -29 22 -35 22 -5 0 -10 4 -10 8 0 5 -30
33 -67 63 -67 54 -210 172 -248 206 -17 15 -182 153 -219 184 -6 5 -25 21 -42
36 -18 16 -40 35 -51 43 -10 8 -59 49 -108 90 -49 41 -100 84 -114 95 -13 11
-29 25 -35 30 -6 6 -92 78 -191 160 -99 83 -190 159 -202 170 -12 11 -28 25
-35 30 -16 12 -122 101 -158 132 -52 45 -69 59 -106 88 -20 17 -42 35 -48 40
-22 20 -93 81 -137 117 -24 20 -54 44 -66 55 -12 10 -30 25 -40 33 -10 8 -63
53 -118 99 -55 46 -120 100 -144 120 -24 20 -49 42 -57 49 -7 6 -15 12 -18 12
-3 0 -15 8 -25 18 -37 32 -50 42 -61 42 -5 0 -10 5 -10 10 0 6 -7 10 -15 10
-8 0 -15 3 -15 8 0 4 -15 13 -32 21 -18 8 -40 19 -48 26 -19 15 -149 72 -209
91 -56 18 -64 21 -73 23 -4 1 -22 7 -40 12 -42 13 -77 21 -108 24 -14 2 -25 4
-25 5 0 10 -375 26 -386 16z"/>
</g>
</svg>
